<?xml version="1.0" encoding="UTF-8" standalone="no"?>
<svg
   width="765"
   height="765"
   viewBox="0 0 765 765"
   version="1.1"
   id="svg10"
   xmlns="http://www.w3.org/2000/svg"
   xmlns:svg="http://www.w3.org/2000/svg"
   xmlns:rdf="http://www.w3.org/1999/02/22-rdf-syntax-ns#"
   xmlns:cc="http://creativecommons.org/ns#"
   xmlns:dc="http://purl.org/dc/elements/1.1/">
  <defs
     id="defs14" />
  <!-- Generator: Sketch 57.1 (83088) - https://sketch.com -->
  <title
     id="title2">Neutral</title>
  <desc
     id="desc4">Created with Sketch.</desc>
  <g
     id="Neutral"
     stroke="none"
     stroke-width="1"
     fill="none"
     fill-rule="evenodd"
     transform="translate(-129.5,-139)">
    <path
       d="M 367.82334,688.79417 203,730 238.22486,589.10057 C 203.33917,543.14529 183,487.91271 183,428.5 183,268.61356 330.29832,139 512,139 693.70168,139 841,268.61356 841,428.5 841,588.38643 693.70168,718 512,718 460.28694,718 411.36054,707.50136 367.82334,688.79417 Z M 418.66667,404.46808 H 415 c -8.28427,0 -15,6.71573 -15,15 V 551 c 0,8.28427 6.71573,15 15,15 h 194 c 8.28427,0 15,-6.71573 15,-15 V 419.46808 c 0,-8.28427 -6.71573,-15 -15,-15 h -3.66667 V 367.19149 C 605.33333,315.77022 563.57607,274 511.95626,274 c -51.53233,0 -93.28959,41.77022 -93.28959,93.19149 z m 149.33333,0 H 456 v -37.27004 c 0,-30.85276 25.05436,-55.92144 55.97376,-55.92144 30.97188,0 56.02624,25.06868 56.02624,55.92144 0,20.60781 0,33.03116 0,37.27004 z"
       id="Shape"
       fill="white" />
    <path
       d="M 567.95122,847.99016 C 567.95122,878.93986 542.90777,904 511.94938,904 481.04345,904 456,878.93986 456,847.99016 456,817.09949 481.04345,792 511.94938,792 c 30.95839,0 56.00184,25.09949 56.00184,55.99016 z m -201.95122,0 C 366,878.93986 340.95655,904 309.99816,904 279.09223,904 254.04878,878.93986 254.04878,847.99016 254.04878,817.09949 279.09223,792 309.99816,792 340.95655,792 366,817.09949 366,847.99016 Z m 403.90244,0 c 0,30.9497 -25.04345,56.00984 -56.00184,56.00984 -30.90593,0 -55.94938,-25.06014 -55.94938,-56.00984 0,-30.89067 25.04345,-55.99016 55.94938,-55.99016 30.95839,0 56.00184,25.09949 56.00184,55.99016 z"
       id="Dots"
       fill="white" />
  </g>
  <metadata
     id="metadata793">
    <rdf:RDF>
      <cc:Work
         rdf:about="">
        <dc:title>Neutral</dc:title>
      </cc:Work>
    </rdf:RDF>
  </metadata>
</svg>
